<svg xmlns="http://www.w3.org/2000/svg" xmlns:xlink="http://www.w3.org/1999/xlink" viewBox="0 0 104 91" fill= "#d2d2d2"><path d="M0.8,32.794v51.205c0,3.534,2.865,6.4,6.4,6.4h19.2V26.393H7.2C3.665,26.393,0.8,29.259,0.8,32.794z"/><path d="M91.381,32.793H72.475c-1.653,0-2.481-1.104-2.759-1.579c-0.278-0.472-0.841-1.731-0.041-3.175l6.666-12.004 c1.462-2.628,1.612-5.719,0.416-8.479c-1.197-2.763-3.56-4.766-6.481-5.495l-4.7-1.175c-1.144-0.288-2.356,0.078-3.153,0.962 L36.903,30.201c-2.647,2.948-4.104,6.748-4.104,10.704v33.491c0,8.822,7.178,16.001,16,16.001l31.834-0.002 c7.188,0,13.535-4.841,15.431-11.77l6.832-31.354c0.2-0.872,0.303-1.766,0.303-2.66C103.2,38.096,97.897,32.793,91.381,32.793 L91.381,32.793z"/></svg>